<svg width="100" height="94" viewBox="0 0 100 94" fill="none" xmlns="http://www.w3.org/2000/svg">
<rect x="0.5" y="0.5" width="99" height="93" rx="8.5" fill="#FFFCF2"/>
<rect x="0.5" y="0.5" width="99" height="93" rx="8.5" stroke="#EAEAEA"/>
<g clip-path="url(#clip0_574_1440)">
<mask id="mask0_574_1440" style="mask-type:luminance" maskUnits="userSpaceOnUse" x="8" y="8" width="84" height="78">
<path d="M92 8H8V86H92V8Z" fill="white"/>
</mask>
<g mask="url(#mask0_574_1440)">
<path d="M52.7857 8H47.2143C27.2137 8 11 25.4609 11 47C11 68.5391 27.2137 86 47.2143 86H52.7857C72.7863 86 89 68.5391 89 47C89 25.4609 72.7863 8 52.7857 8Z" fill="white"/>
<path d="M49.5 79C67.4493 79 82 64.6731 82 47C82 29.3269 67.4493 15 49.5 15C31.5507 15 17 29.3269 17 47C17 64.6731 31.5507 79 49.5 79Z" fill="#E0E8E2"/>
<path d="M42.6925 58.7508C44.8344 59.9423 47.969 60.9392 49.4056 60.9392C53.8463 60.9392 60.3504 55.1277 60.8467 48.5866C60.8728 48.3921 60.7945 48.1976 60.6377 48.0517C56.6673 43.8693 55.7531 38.5927 55.5703 37.3283C55.6225 37.1338 55.5442 37.0365 55.5442 37.0365C55.4919 36.9879 55.3351 37.1095 55.2828 37.1824C54.7343 37.8633 54.1596 38.3739 53.7156 38.6657C53.5066 38.7873 53.2193 38.7143 53.1409 38.4712C52.5401 36.8663 50.3983 35.7477 49.7191 35.4073C49.5885 35.3344 49.4318 35.3344 49.275 35.383C47.8122 35.8207 39.7669 38.69 38.722 47.1763C38.4869 48.9514 38.5392 50.4833 38.7481 51.7721C39.4273 56.1246 43.1626 56.6596 44.6254 56.7082C44.8344 56.7082 44.9389 56.9514 44.7822 57.0973C40.0853 59.8936 32.5312 54.4225 32.5312 54.4225" fill="#FDF8E5"/>
<path d="M42.6925 58.7508C44.8344 59.9423 47.969 60.9392 49.4056 60.9392C53.8463 60.9392 60.3504 55.1277 60.8467 48.5866C60.8728 48.3921 60.7945 48.1976 60.6377 48.0517C56.6673 43.8693 55.7531 38.5927 55.5703 37.3283C55.6225 37.1338 55.5442 37.0365 55.5442 37.0365C55.4919 36.9879 55.3351 37.1095 55.2828 37.1824C54.7343 37.8633 54.1596 38.3739 53.7156 38.6657C53.5066 38.7873 53.2193 38.7143 53.1409 38.4712C52.5401 36.8663 50.3983 35.7477 49.7191 35.4073C49.5885 35.3344 49.4318 35.3344 49.275 35.383C47.8122 35.8207 39.7669 38.69 38.722 47.1763C38.4869 48.9514 38.5392 50.4833 38.7481 51.7721C39.4273 56.1246 43.1626 56.6596 44.6254 56.7082C44.8344 56.7082 44.9389 56.9514 44.7822 57.0973C40.0853 59.8936 32.5312 54.4225 32.5312 54.4225" stroke="#3A643C" stroke-miterlimit="10" stroke-linecap="round" stroke-linejoin="round"/>
<path d="M56.4854 43.9179C62.0973 43.9179 66.6466 39.683 66.6466 34.4589C66.6466 29.2349 62.0973 25 56.4854 25C50.8735 25 46.3242 29.2349 46.3242 34.4589C46.3242 39.683 50.8735 43.9179 56.4854 43.9179Z" stroke="#3A643C" stroke-miterlimit="10" stroke-linecap="round" stroke-linejoin="round"/>
<path d="M65.757 38.0864L64.4883 40.128L74.731 45.6433L75.9996 43.6017L65.757 38.0864Z" fill="#3A643C"/>
<path d="M36.0943 56.9149C30.7736 62.8724 29.1873 56.9026 29.0044 53.0121C28.8216 49.1215 34.3854 42.7507 35.587 40.3434C36.7886 37.9604 35.0646 32.9513 41.9083 29.7659C47.6289 27.0912 51.2598 29.7902 52.2785 30.7385C52.4352 30.8844 52.6965 30.8844 52.8532 30.7385C55.7788 27.8206 61.4993 31.1276 61.9173 36.8662C62.3614 42.7993 64.5033 44.4285 65.3914 45.62C67.0632 47.8814 71.1904 55.6382 67.246 58.1428C63.2756 60.6716 61.6822 57.5349 61.6822 57.5349C61.6822 57.5349 59.3574 59.9421 56.5624 58.9695C56.1184 58.8236 55.7527 58.5561 55.4653 58.2887" stroke="#3A643C" stroke-miterlimit="10" stroke-linecap="round" stroke-linejoin="round"/>
<path d="M44.3125 59.5532V65" stroke="#3A643C" stroke-miterlimit="10" stroke-linecap="round" stroke-linejoin="round"/>
<path d="M54.2656 59.1636V64.9995" stroke="#3A643C" stroke-miterlimit="10" stroke-linecap="round" stroke-linejoin="round"/>
</g>
</g>
<defs>
<clipPath id="clip0_574_1440">
<rect width="84" height="78" fill="white" transform="translate(8 8)"/>
</clipPath>
</defs>
</svg>
