<svg width="21" height="22" viewBox="0 0 21 22" fill="none" xmlns="http://www.w3.org/2000/svg">
<path d="M20.0193 10.9804C20.0086 5.45744 15.523 0.989084 9.99998 0.999744C4.47699 1.0104 0.00864036 5.49603 0.0192994 11.019C0.0299585 16.542 4.51559 21.0104 10.0386 20.9997C15.5616 20.989 20.0299 16.5034 20.0193 10.9804ZM18.5193 10.9833C18.5236 13.2377 17.6323 15.4014 16.0413 16.9985C14.4503 18.5957 12.29 19.4954 10.0357 19.4997C7.78135 19.5041 5.61762 18.6127 4.02048 17.0217C2.42335 15.4307 1.52365 13.2705 1.5193 11.0161C1.51495 8.76179 2.40631 6.59806 3.99728 5.00093C5.58826 3.4038 7.74854 2.50409 10.0029 2.49974C12.2572 2.49539 14.4209 3.38675 16.0181 4.97773C17.6152 6.56871 18.5149 8.72898 18.5193 10.9833ZM12.058 15.5258C12.1982 15.3849 12.2767 15.1941 12.2763 14.9954C12.276 14.7966 12.1967 14.6062 12.056 14.4658L8.57928 11.0025L12.0426 7.52581C12.1748 7.38338 12.2465 7.1952 12.2427 7.0009C12.2389 6.80661 12.1599 6.62138 12.0222 6.48423C11.8845 6.34708 11.699 6.26873 11.5047 6.26567C11.3104 6.26262 11.1225 6.33511 10.9805 6.46786L6.98826 10.4756C6.84809 10.6165 6.76956 10.8072 6.76995 11.006C6.77033 11.2047 6.84959 11.3952 6.99031 11.5356L10.998 15.5278C11.1389 15.668 11.3297 15.7465 11.5284 15.7462C11.7272 15.7458 11.9177 15.6665 12.058 15.5258Z" fill="#808080"/>
</svg>
