<svg width="21" height="20" viewBox="0 0 21 20" fill="none" xmlns="http://www.w3.org/2000/svg">
<path d="M0.0390625 10C0.0390625 15.523 4.51606 20 10.0391 20C15.5621 20 20.0391 15.523 20.0391 10C20.0391 4.477 15.5621 0 10.0391 0C4.51606 0 0.0390625 4.477 0.0390625 10ZM1.53906 10C1.53906 7.74566 2.4346 5.58365 4.02865 3.98959C5.62271 2.39553 7.78472 1.5 10.0391 1.5C12.2934 1.5 14.4554 2.39553 16.0495 3.98959C17.6435 5.58365 18.5391 7.74566 18.5391 10C18.5391 12.2543 17.6435 14.4163 16.0495 16.0104C14.4554 17.6045 12.2934 18.5 10.0391 18.5C7.78472 18.5 5.62271 17.6045 4.02865 16.0104C2.4346 14.4163 1.53906 12.2543 1.53906 10ZM8.00906 5.47C7.86861 5.61062 7.78972 5.80125 7.78972 6C7.78972 6.19875 7.86861 6.38937 8.00906 6.53L11.4791 10L8.00906 13.47C7.87658 13.6122 7.80446 13.8002 7.80789 13.9945C7.81132 14.1888 7.89003 14.3742 8.02744 14.5116C8.16485 14.649 8.35024 14.7277 8.54454 14.7312C8.73884 14.7346 8.92689 14.6625 9.06906 14.53L13.0691 10.53C13.2095 10.3894 13.2884 10.1988 13.2884 10C13.2884 9.80125 13.2095 9.61063 13.0691 9.47L9.06906 5.47C8.92844 5.32955 8.73781 5.25066 8.53906 5.25066C8.34031 5.25066 8.14969 5.32955 8.00906 5.47Z" fill="#808080"/>
</svg>
