<svg width="15" height="16" viewBox="0 0 15 16" fill="none" xmlns="http://www.w3.org/2000/svg">
<path d="M6.74768 1.23357C7.05389 0.60547 7.94895 0.60547 8.25516 1.23357L9.88275 4.57212C10.004 4.82079 10.2401 4.99366 10.5137 5.03416L14.1719 5.57554C14.8561 5.6768 15.1304 6.51637 14.6379 7.00209L11.979 9.62418C11.7842 9.81633 11.6954 10.0915 11.7411 10.3613L12.3666 14.0539C12.4829 14.7403 11.7603 15.2613 11.1457 14.9341L7.89552 13.2035C7.64916 13.0723 7.35368 13.0723 7.10732 13.2035L3.85713 14.9341C3.24257 15.2613 2.51998 14.7403 2.63626 14.0539L3.26177 10.3613C3.30747 10.0915 3.21865 9.81633 3.0238 9.62418L0.364954 7.00209C-0.127572 6.51637 0.146702 5.6768 0.830989 5.57554L4.48911 5.03416C4.76278 4.99366 4.99886 4.82079 5.12009 4.57212L6.74768 1.23357Z" fill="#F79624"/>
</svg>
