<svg width="42" height="42" viewBox="0 0 42 42" fill="none" xmlns="http://www.w3.org/2000/svg">
<circle cx="21" cy="21" r="20.15" fill="#F7F7FC" stroke="#8E8E8E" stroke-width="0.3"/>
<path d="M26 11H16C13.2386 11 11 13.2386 11 16V26C11 28.7614 13.2386 31 16 31H26C28.7614 31 31 28.7614 31 26V16C31 13.2386 28.7614 11 26 11Z" stroke="#3A643B" stroke-linecap="round" stroke-linejoin="round"/>
<path d="M24.9997 20.3703C25.1231 21.2025 24.981 22.0525 24.5935 22.7993C24.206 23.5461 23.5929 24.1517 22.8413 24.53C22.0898 24.9082 21.2382 25.0399 20.4075 24.9062C19.5768 24.7726 18.8095 24.3804 18.2145 23.7855C17.6196 23.1905 17.2274 22.4232 17.0938 21.5925C16.9601 20.7619 17.0918 19.9102 17.47 19.1587C17.8483 18.4072 18.4539 17.794 19.2007 17.4065C19.9475 17.019 20.7975 16.8769 21.6297 17.0003C22.4786 17.1262 23.2646 17.5218 23.8714 18.1286C24.4782 18.7355 24.8738 19.5214 24.9997 20.3703Z" stroke="#3A643B" stroke-linecap="round" stroke-linejoin="round"/>
<path d="M26.5 15.5H26.51" stroke="#3A643B" stroke-width="2" stroke-linecap="round" stroke-linejoin="round"/>
</svg>
