<svg width="101" height="96" viewBox="0 0 101 96" fill="none" xmlns="http://www.w3.org/2000/svg">
<rect x="1" y="0.5" width="99" height="95" rx="8.5" fill="#FFFCF2"/>
<rect x="1" y="0.5" width="99" height="95" rx="8.5" stroke="#EAEAEA"/>
<g clip-path="url(#clip0_574_1381)">
<mask id="mask0_574_1381" style="mask-type:luminance" maskUnits="userSpaceOnUse" x="9" y="10" width="85" height="78">
<path d="M93.5 10H9.5V88H93.5V10Z" fill="white"/>
</mask>
<g mask="url(#mask0_574_1381)">
<path d="M54.2857 10H48.7143C28.7137 10 12.5 27.4609 12.5 49C12.5 70.5391 28.7137 88 48.7143 88H54.2857C74.2863 88 90.5 70.5391 90.5 49C90.5 27.4609 74.2863 10 54.2857 10Z" fill="white"/>
<path d="M51 81C68.9493 81 83.5 66.6731 83.5 49C83.5 31.3269 68.9493 17 51 17C33.0507 17 18.5 31.3269 18.5 49C18.5 66.6731 33.0507 81 51 81Z" fill="#E0E8E2"/>
<path d="M49.5 25H53.5C66.2025 25 76.5 35.9691 76.5 49.5C76.5 63.0309 66.2025 74 53.5 74H49.5C36.7975 74 26.5 63.0309 26.5 49.5C26.5 35.9691 36.7975 25 49.5 25Z" fill="#FDF8E5"/>
<path d="M61.5987 68C68.6408 64.5281 73.5 57.3708 73.5 49.3759C73.5 38.1572 64.0026 29 52.0574 29C51.2105 29 50.3614 29.0651 49.5 29.1442C49.5709 29.3279 49.6405 29.5098 49.7097 29.6902C50.1714 30.8948 50.6066 32.0302 51.1657 33.1725L51.1711 33.1837L51.176 33.1951C51.9132 34.9022 52.8643 36.6166 53.8197 38.1354C54.8867 39.7632 55.9472 41.2791 57.2166 42.7922L57.2216 42.7981L57.2264 42.8042C58.5369 44.4704 59.6263 46.2375 60.6033 48.1007L60.6102 48.1138L60.6163 48.1274C62.3556 51.9626 63.4562 56.1365 63.3476 60.3331C63.3463 62.9123 62.7195 65.6322 61.5987 68Z" fill="#E0E8E2" stroke="#3A643C"/>
<path d="M61.0518 60.4863L61.0505 60.4748C60.7016 56.8794 59.42 53.3645 57.6511 49.9216L57.645 49.9093C56.8348 48.2198 55.7891 46.72 54.4912 45.099C53.1667 43.4447 51.9562 41.6792 50.9851 39.803C50.0229 37.9441 49.1708 35.9629 48.6816 33.9678L48.6794 33.9586L48.6775 33.9494C48.3543 32.3769 48.1273 30.8039 47.9966 29.3037C45.9079 29.6112 43.98 30.2037 42.1289 30.893C43.1863 35.623 44.8528 39.4584 49.4172 44.6534C51.054 46.3729 54.0988 50.1541 55.928 54.8661C57.6708 59.3557 58.3267 64.7423 55.5406 69.979C57.1261 69.7736 58.7067 69.431 60.2106 69.0113C61.1796 66.2044 61.3911 63.3031 61.0518 60.4863Z" fill="#E0E8E2" stroke="#3A643C"/>
<path d="M40.4272 43.0933C40.1891 44.1155 40.1891 44.2177 39.5938 44.4222C40.9032 44.5244 43.8794 44.5244 45.07 43.0933C43.9985 43.2977 41.6176 43.7066 40.4272 43.0933Z" fill="white"/>
<path d="M39.2398 40.64C39.716 40.1289 42.5731 40.1289 44.0017 40.2311C42.9303 39.72 40.4303 39.9245 39.2398 40.0267C39.0017 40.4356 38.6446 41.1511 39.2398 40.64Z" fill="white"/>
<path d="M37.2279 56.5913L37.2369 56.5859L37.246 56.5808C37.2834 56.5603 37.286 56.5469 37.288 56.541C37.2946 56.5223 37.3032 56.4755 37.2904 56.3899C37.2705 56.2563 37.2109 56.1106 37.1518 56.0032C36.5286 55.7073 36.1713 55.2649 36.0859 54.7375C36.0377 54.4407 36.0837 54.1606 36.1743 53.9223C36.0992 53.8339 36.0386 53.7335 35.9933 53.6232C35.8834 53.3555 35.8821 53.0736 35.9191 52.837C35.9565 52.5975 36.0383 52.3692 36.1339 52.1785C36.2195 52.0079 36.33 51.8399 36.4565 51.714C36.4965 51.6566 36.5167 51.5769 36.4709 51.4513C36.4125 51.2912 36.2328 51.0368 35.7869 50.765L35.7807 50.7613L35.7747 50.7574C35.3188 50.4598 35.0415 50.085 35.0133 49.647C34.9866 49.2341 35.1928 48.9207 35.3727 48.7522C36.4412 47.6777 37.0944 46.983 39.2934 44.4022C39.0551 42.5997 39.2585 40.5554 39.608 38.725C39.9604 36.8795 40.469 35.2116 40.862 34.1612C40.8072 33.7363 40.7113 33.322 40.5992 32.8895C40.5656 32.7597 40.53 32.6266 40.4937 32.4907C40.4509 32.3305 40.407 32.1666 40.3642 32C33.8982 35.4528 29.5 41.9406 29.5 49.3218C29.5 60.4408 39.4348 70 51.6485 70H52.1814C52.2197 69.9352 52.2575 69.8664 52.2991 69.7903L52.304 69.7815C52.3598 69.6795 52.4232 69.5636 52.5 69.4429C52.3384 67.8122 51.313 65.4701 49.9311 63.4975C49.2215 62.4845 48.4373 61.5977 47.663 60.9753C46.8801 60.3461 46.1623 60.0307 45.5704 60.0493C41.8013 60.2518 40.5514 60.2537 38.7398 60.0468C37.6772 59.9254 37.0286 59.2694 36.7732 58.5359C36.649 58.1792 36.6171 57.8012 36.6804 57.4628C36.7427 57.1299 36.9099 56.7851 37.2279 56.5913Z" fill="#E0E8E2" stroke="#147A36"/>
<path d="M39.5938 46.4222C40.9032 46.5244 43.8794 46.5244 45.07 45.0933C43.9985 45.2977 41.6176 45.7066 40.4272 45.0933C40.1891 46.1155 40.1891 46.2177 39.5938 46.4222Z" fill="#6B8E70"/>
<path d="M39.2398 42.64C39.716 42.1289 42.5731 42.1289 44.0017 42.2311C42.9303 41.72 40.4303 41.9245 39.2398 42.0267C39.0017 42.4356 38.6446 43.1511 39.2398 42.64Z" fill="#3A643C"/>
</g>
</g>
<defs>
<clipPath id="clip0_574_1381">
<rect width="84" height="78" fill="white" transform="translate(8.5 9)"/>
</clipPath>
</defs>
</svg>
