<svg width="42" height="42" viewBox="0 0 42 42" fill="none" xmlns="http://www.w3.org/2000/svg">
<circle cx="21" cy="21" r="20.15" fill="#F7F7FC" stroke="#8E8E8E" stroke-width="0.3"/>
<path d="M31.5406 15.42C31.4218 14.9454 31.1799 14.5106 30.8392 14.1594C30.4986 13.8082 30.0713 13.5532 29.6006 13.42C27.8806 13 21.0006 13 21.0006 13C21.0006 13 14.1206 13 12.4006 13.46C11.9298 13.5932 11.5025 13.8482 11.1619 14.1994C10.8213 14.5506 10.5794 14.9854 10.4606 15.46C10.1458 17.2056 9.99181 18.9763 10.0006 20.75C9.98935 22.537 10.1433 24.3213 10.4606 26.08C10.5915 26.5398 10.8389 26.9581 11.1787 27.2945C11.5186 27.6308 11.9394 27.8738 12.4006 28C14.1206 28.46 21.0006 28.46 21.0006 28.46C21.0006 28.46 27.8806 28.46 29.6006 28C30.0713 27.8668 30.4986 27.6118 30.8392 27.2606C31.1799 26.9094 31.4218 26.4746 31.5406 26C31.8529 24.2676 32.0069 22.5103 32.0006 20.75C32.0118 18.963 31.8578 17.1787 31.5406 15.42Z" stroke="#3A643B" stroke-linecap="round" stroke-linejoin="round"/>
<path d="M18.75 24.0205L24.5 20.7505L18.75 17.4805V24.0205Z" stroke="#3A643B" stroke-linecap="round" stroke-linejoin="round"/>
</svg>
